<svg width="32" height="32" viewBox="0 0 32 32" fill="none" xmlns="http://www.w3.org/2000/svg">
<rect width="32" height="32" rx="2.13333" fill="#111929"/>
<g opacity="0.84" clip-path="url(#clip0_457_17998)">
<path d="M19.1639 4.2114L16.7167 3.55566L14.6544 11.2523L12.7926 4.30373L10.3453 4.95946L12.3569 12.4669L7.34639 7.45637L5.55489 9.24787L11.0508 14.7438L4.20652 12.9099L3.55078 15.3571L11.029 17.3609C10.9434 16.9916 10.8981 16.6068 10.8981 16.2115C10.8981 13.413 13.1668 11.1443 15.9653 11.1443C18.7638 11.1443 21.0324 13.413 21.0324 16.2115C21.0324 16.6043 20.9877 16.9867 20.9031 17.3538L27.6995 19.1749L28.3552 16.7277L20.8472 14.7159L27.6919 12.8818L27.0362 10.4346L19.5285 12.4463L24.539 7.4358L22.7475 5.6443L17.3278 11.064L19.1639 4.2114Z" fill="white"/>
<path d="M20.896 17.3823C20.6861 18.2694 20.2432 19.0662 19.6354 19.7047L24.5591 24.6284L26.3506 22.8369L20.896 17.3823Z" fill="white"/>
<path d="M19.5857 19.7562C18.9706 20.3844 18.1932 20.8533 17.3215 21.0949L19.1131 27.7813L21.5603 27.1255L19.5857 19.7562Z" fill="white"/>
<path d="M17.2301 21.1194C16.8256 21.2233 16.4017 21.2786 15.9648 21.2786C15.4968 21.2786 15.0436 21.2151 14.6133 21.0963L12.8201 27.7889L15.2673 28.4446L17.2301 21.1194Z" fill="white"/>
<path d="M14.5268 21.0717C13.6684 20.8181 12.9048 20.3432 12.3023 19.7132L7.3665 24.649L9.158 26.4405L14.5268 21.0717Z" fill="white"/>
<path d="M12.2616 19.6695C11.6694 19.0355 11.238 18.2493 11.0326 17.3759L4.2141 19.2029L4.86983 21.6501L12.2616 19.6695Z" fill="white"/>
</g>
<defs>
<clipPath id="clip0_457_17998">
<rect width="24.8889" height="29.8667" fill="white" transform="translate(3.55469 1.06641)"/>
</clipPath>
</defs>
</svg>
